<mxfile host="app.diagrams.net" agent="Mozilla/5.0 (Windows NT 10.0; Win64; x64) AppleWebKit/537.36 (KHTML, like Gecko) Chrome/129.0.0.0 Safari/537.36" version="24.7.12">
  <diagram name="Page-1" id="8MbaXO_LUSLUjHB7arwM">
    <mxGraphModel dx="696" dy="446" grid="1" gridSize="10" guides="1" tooltips="1" connect="1" arrows="1" fold="1" page="1" pageScale="1" pageWidth="827" pageHeight="1169" math="0" shadow="0">
      <root>
        <mxCell id="0" />
        <mxCell id="1" parent="0" />
        <mxCell id="NKS0Weo0oHeyilUSJMm9-1" value="" style="rounded=0;whiteSpace=wrap;html=1;" vertex="1" parent="1">
          <mxGeometry x="50" y="220" width="300" height="250" as="geometry" />
        </mxCell>
        <mxCell id="NKS0Weo0oHeyilUSJMm9-2" value="Dual Vendor support enabled on LCD Display Driver" style="rounded=1;whiteSpace=wrap;html=1;" vertex="1" parent="1">
          <mxGeometry x="180" y="300" width="130" height="85" as="geometry" />
        </mxCell>
        <mxCell id="NKS0Weo0oHeyilUSJMm9-3" value="" style="rounded=0;whiteSpace=wrap;html=1;" vertex="1" parent="1">
          <mxGeometry x="350" y="292.5" width="40" height="100" as="geometry" />
        </mxCell>
        <mxCell id="NKS0Weo0oHeyilUSJMm9-4" value="Select GPIO" style="rounded=0;whiteSpace=wrap;html=1;" vertex="1" parent="1">
          <mxGeometry x="350" y="420" width="90" height="30" as="geometry" />
        </mxCell>
        <mxCell id="NKS0Weo0oHeyilUSJMm9-5" value="LCD Vendor-1" style="rounded=0;whiteSpace=wrap;html=1;" vertex="1" parent="1">
          <mxGeometry x="530" y="220" width="120" height="60" as="geometry" />
        </mxCell>
        <mxCell id="NKS0Weo0oHeyilUSJMm9-6" value="LCD Vendor-2" style="rounded=0;whiteSpace=wrap;html=1;" vertex="1" parent="1">
          <mxGeometry x="540" y="370" width="120" height="60" as="geometry" />
        </mxCell>
        <mxCell id="NKS0Weo0oHeyilUSJMm9-8" value="" style="endArrow=classic;startArrow=classic;html=1;rounded=0;exitX=1;exitY=0.5;exitDx=0;exitDy=0;entryX=0;entryY=0.5;entryDx=0;entryDy=0;" edge="1" parent="1" source="NKS0Weo0oHeyilUSJMm9-2" target="NKS0Weo0oHeyilUSJMm9-3">
          <mxGeometry width="50" height="50" relative="1" as="geometry">
            <mxPoint x="370" y="430" as="sourcePoint" />
            <mxPoint x="420" y="380" as="targetPoint" />
          </mxGeometry>
        </mxCell>
        <mxCell id="NKS0Weo0oHeyilUSJMm9-9" value="" style="endArrow=classic;html=1;rounded=0;exitX=0;exitY=0.5;exitDx=0;exitDy=0;entryX=0.5;entryY=1;entryDx=0;entryDy=0;" edge="1" parent="1" source="NKS0Weo0oHeyilUSJMm9-4" target="NKS0Weo0oHeyilUSJMm9-2">
          <mxGeometry width="50" height="50" relative="1" as="geometry">
            <mxPoint x="370" y="430" as="sourcePoint" />
            <mxPoint x="420" y="380" as="targetPoint" />
            <Array as="points">
              <mxPoint x="245" y="435" />
            </Array>
          </mxGeometry>
        </mxCell>
        <mxCell id="NKS0Weo0oHeyilUSJMm9-10" value="LCD Port" style="text;html=1;align=center;verticalAlign=middle;whiteSpace=wrap;rounded=0;rotation=270;" vertex="1" parent="1">
          <mxGeometry x="340" y="327.5" width="60" height="30" as="geometry" />
        </mxCell>
        <mxCell id="NKS0Weo0oHeyilUSJMm9-12" value="GPIO Input" style="text;html=1;align=center;verticalAlign=middle;whiteSpace=wrap;rounded=0;" vertex="1" parent="1">
          <mxGeometry x="240" y="392.5" width="60" height="30" as="geometry" />
        </mxCell>
        <mxCell id="NKS0Weo0oHeyilUSJMm9-13" value="" style="endArrow=none;dashed=1;html=1;dashPattern=1 3;strokeWidth=2;rounded=0;exitX=1;exitY=0.25;exitDx=0;exitDy=0;entryX=0;entryY=0.5;entryDx=0;entryDy=0;" edge="1" parent="1" source="NKS0Weo0oHeyilUSJMm9-3" target="NKS0Weo0oHeyilUSJMm9-5">
          <mxGeometry width="50" height="50" relative="1" as="geometry">
            <mxPoint x="370" y="330" as="sourcePoint" />
            <mxPoint x="420" y="280" as="targetPoint" />
            <Array as="points">
              <mxPoint x="460" y="318" />
              <mxPoint x="460" y="250" />
            </Array>
          </mxGeometry>
        </mxCell>
        <mxCell id="NKS0Weo0oHeyilUSJMm9-17" value="" style="endArrow=none;dashed=1;html=1;dashPattern=1 3;strokeWidth=2;rounded=0;exitX=1;exitY=0.75;exitDx=0;exitDy=0;entryX=0;entryY=0.5;entryDx=0;entryDy=0;" edge="1" parent="1" source="NKS0Weo0oHeyilUSJMm9-3" target="NKS0Weo0oHeyilUSJMm9-6">
          <mxGeometry width="50" height="50" relative="1" as="geometry">
            <mxPoint x="370" y="330" as="sourcePoint" />
            <mxPoint x="420" y="280" as="targetPoint" />
            <Array as="points">
              <mxPoint x="460" y="368" />
              <mxPoint x="460" y="400" />
            </Array>
          </mxGeometry>
        </mxCell>
        <mxCell id="NKS0Weo0oHeyilUSJMm9-18" value="" style="endArrow=none;dashed=1;html=1;dashPattern=1 3;strokeWidth=2;rounded=0;exitX=0.5;exitY=1;exitDx=0;exitDy=0;" edge="1" parent="1" source="NKS0Weo0oHeyilUSJMm9-4">
          <mxGeometry width="50" height="50" relative="1" as="geometry">
            <mxPoint x="370" y="430" as="sourcePoint" />
            <mxPoint x="395" y="480" as="targetPoint" />
          </mxGeometry>
        </mxCell>
        <mxCell id="NKS0Weo0oHeyilUSJMm9-20" value="Vcc(3V/5V)/GND" style="rounded=0;whiteSpace=wrap;html=1;" vertex="1" parent="1">
          <mxGeometry x="350" y="480" width="100" height="30" as="geometry" />
        </mxCell>
        <mxCell id="NKS0Weo0oHeyilUSJMm9-22" value="DQC/ITE" style="text;html=1;align=center;verticalAlign=middle;whiteSpace=wrap;rounded=0;" vertex="1" parent="1">
          <mxGeometry x="80" y="250" width="60" height="30" as="geometry" />
        </mxCell>
        <mxCell id="NKS0Weo0oHeyilUSJMm9-23" value="Select GPIO = 1" style="text;html=1;align=center;verticalAlign=middle;whiteSpace=wrap;rounded=0;" vertex="1" parent="1">
          <mxGeometry x="470" y="290" width="60" height="30" as="geometry" />
        </mxCell>
        <mxCell id="NKS0Weo0oHeyilUSJMm9-24" value="Select GPIO = 0" style="text;html=1;align=center;verticalAlign=middle;whiteSpace=wrap;rounded=0;" vertex="1" parent="1">
          <mxGeometry x="471" y="362.5" width="60" height="30" as="geometry" />
        </mxCell>
      </root>
    </mxGraphModel>
  </diagram>
</mxfile>
